<svg xmlns="http://www.w3.org/2000/svg">
    <defs>
        <symbol id="user-icon" viewBox="0 0 17 20">
            <path d="M15.7998 18.7998C15.2998 16.2998 12.1658 14.2998 8.2998 14.2998C4.43381 14.2998 1.2998 16.2998 0.799805 18.7998M3.2998 5.7998C3.2998 3.03838 5.53838 0.799805 8.2998 0.799805C11.0612 0.799805 13.2998 3.03838 13.2998 5.7998C13.2998 8.5612 11.0612 10.7998 8.2998 10.7998C5.53838 10.7998 3.2998 8.5612 3.2998 5.7998Z" stroke="#222222" stroke-width="1.6" stroke-linecap="round" stroke-linejoin="round"/>
        </symbol>
        <symbol id="search-icon" viewBox="0 0 21 21">
            <path d="M16.0164 16.0208C17.631 14.4073 18.6298 12.1777 18.6298 9.7148C18.6298 4.79116 14.6384 0.799805 9.7148 0.799805C4.79118 0.799805 0.799805 4.79116 0.799805 9.7148C0.799805 14.6383 4.79118 18.6297 9.7148 18.6297C12.1755 18.6297 14.4033 17.6328 16.0164 16.0208ZM16.0164 16.0208L19.7998 19.7998" stroke="#222222" stroke-width="1.6" stroke-linecap="round" stroke-linejoin="round"/>
        </symbol>
        <symbol id="bell-icon" viewBox="0 0 18 21">
            <path d="M1.5191 8.1185H2.3191C2.3191 4.51464 5.22487 1.6 8.80085 1.6V0.8V0C4.33363 0 0.719101 3.63859 0.719101 8.1185H1.5191ZM8.80085 0.8V1.6C12.3769 1.6 15.2827 4.51464 15.2827 8.1185H16.0826H16.8827C16.8827 3.63859 13.2681 0 8.80085 0V0.8ZM1.5191 8.1185H0.719101V12.896H1.5191H2.3191V8.1185H1.5191ZM1.31939 14.0015L0.569941 13.7216L0.118921 14.9294L0.868371 15.2093L1.61782 15.4891L2.06884 14.2813L1.31939 14.0015ZM16.0826 8.1185H15.2827V12.896H16.0826H16.8827V8.1185H16.0826ZM16.2824 14.0015L15.5329 14.2813L15.9839 15.4891L16.7334 15.2093L17.4827 14.9294L17.0317 13.7216L16.2824 14.0015ZM16.0826 12.896H15.2827C15.2827 13.369 15.3674 13.8382 15.5329 14.2813L16.2824 14.0015L17.0317 13.7216C16.9331 13.4574 16.8827 13.1778 16.8827 12.896H16.0826ZM1.5191 12.896H0.719101C0.719101 13.1778 0.668591 13.4574 0.569941 13.7216L1.31939 14.0015L2.06884 14.2813C2.23433 13.8382 2.3191 13.369 2.3191 12.896H1.5191ZM15.7419 16.6333V17.4333C17.035 17.4333 17.9366 16.1446 17.4827 14.9294L16.7334 15.2093L15.9839 15.4891C16.0453 15.6534 15.9244 15.8333 15.7419 15.8333V16.6333ZM1.85983 16.6333V15.8333C1.67739 15.8333 1.55647 15.6534 1.61782 15.4891L0.868371 15.2093L0.118921 14.9294C-0.334849 16.1446 0.566751 17.4333 1.85983 17.4333V16.6333ZM11.9724 16.6333H11.1724C11.1724 17.9395 10.113 19 8.80085 19V19.8V20.6C10.9948 20.6 12.7724 18.825 12.7724 16.6333H11.9724ZM8.80085 19.8V19C7.48865 19 6.42895 17.9394 6.42895 16.6333H5.62898H4.82898C4.82898 18.8251 6.60705 20.6 8.80085 20.6V19.8ZM11.9724 16.6333V17.4333H15.7419V16.6333V15.8333H11.9724V16.6333ZM1.85983 16.6333V17.4333H5.62898V16.6333V15.8333H1.85983V16.6333ZM5.62898 16.6333V17.4333H11.9724V16.6333V15.8333H5.62898V16.6333Z" fill="#222222"/>
        </symbol>
        <symbol id="otp-icon" viewBox="0 0 22 22">
            <path d="M22 12C22 13.9778 21.4135 15.9112 20.3147 17.5557C19.2159 19.2002 17.6541 20.4819 15.8268 21.2388C13.9996 21.9957 11.9889 22.1937 10.0491 21.8078C8.10929 21.422 6.32746 20.4696 4.92894 19.0711C3.53041 17.6725 2.578 15.8907 2.19215 13.9509C1.8063 12.0111 2.00433 10.0004 2.76121 8.17316C3.51809 6.3459 4.79981 4.78412 6.4443 3.6853C8.08879 2.58649 10.0222 2 12 2V5.60947C10.7361 5.60947 9.50053 5.98426 8.44961 6.68647C7.3987 7.38867 6.57961 8.38673 6.09592 9.55445C5.61224 10.7222 5.48568 12.0071 5.73226 13.2467C5.97884 14.4864 6.58748 15.6251 7.48121 16.5188C8.37495 17.4125 9.51363 18.0212 10.7533 18.2677C11.9929 18.5143 13.2778 18.3878 14.4456 17.9041C15.6133 17.4204 16.6113 16.6013 17.3135 15.5504C18.0157 14.4995 18.3905 13.2639 18.3905 12H22Z" fill="#85B914"/>
            <path d="M16.4004 11.9966C16.4004 14.425 14.4318 16.3935 12.0034 16.3935C9.57503 16.3935 7.60645 14.425 7.60645 11.9966C7.60645 9.5682 9.57503 7.59961 12.0034 7.59961C14.4318 7.59961 16.4004 9.5682 16.4004 11.9966Z" fill="#85B914"/>
            <path d="M20.1708 6.3603C20.1708 7.75474 19.0404 8.88515 17.6459 8.88515C16.2515 8.88515 15.1211 7.75474 15.1211 6.3603C15.1211 4.96587 16.2515 3.83545 17.6459 3.83545C19.0404 3.83545 20.1708 4.96587 20.1708 6.3603Z" fill="#85B914"/>
        </symbol>
        <symbol id="clock-icon" viewBox="0 0 20 20">
            <path fill-rule="evenodd" clip-rule="evenodd" d="M10 20C15.5228 20 20 15.5228 20 10C20 4.47715 15.5228 0 10 0C4.47715 0 0 4.47715 0 10C0 15.5228 4.47715 20 10 20ZM10.9 5C10.9 4.50294 10.4971 4.1 10 4.1C9.5029 4.1 9.1 4.50294 9.1 5V9.0627C9.1 9.9234 9.4823 10.7396 10.1435 11.2906L12.5817 13.3225C12.9636 13.6407 13.5311 13.5891 13.8493 13.2072C14.1675 12.8254 14.1159 12.2579 13.7341 11.9397L11.2958 9.9078C11.045 9.6988 10.9 9.3892 10.9 9.0627V5Z" fill="#525252"/>
        </symbol>
        <symbol id="pay-icon" viewBox="0 0 18 20">
            <path fill-rule="evenodd" clip-rule="evenodd" d="M3 0C1.34315 0 0 1.34315 0 3V17C0 18.6569 1.34315 20 3 20H15C16.6569 20 18 18.6569 18 17V3C18 1.34315 16.6569 0 15 0H3ZM14.1152 10.6569C14.297 10.4868 14.4001 10.2489 14.4001 10C14.4001 9.7511 14.297 9.5132 14.1152 9.3431L10.9115 6.34306C10.5487 6.00331 9.9792 6.02202 9.6394 6.38483C9.2997 6.74765 9.3184 7.31719 9.6812 7.65694L11.2222 9.1H4.50007C4.00302 9.1 3.60007 9.5029 3.60007 10C3.60007 10.4971 4.00302 10.9 4.50007 10.9H11.2222L9.6812 12.3431C9.3184 12.6828 9.2997 13.2523 9.6394 13.6152C9.9792 13.978 10.5487 13.9967 10.9115 13.6569L14.1152 10.6569Z" fill="#525252"/>
        </symbol>
        <symbol id="chat-icon" viewBox="0 0 20 20">
            <path fill-rule="evenodd" clip-rule="evenodd" d="M0 10C0 4.47715 4.47715 0 10 0C15.5228 0 20 4.47715 20 10C20 15.5228 15.5228 20 10 20H2C0.89543 20 0 19.1046 0 18V10ZM13.1 12.5C13.1 12.9971 12.697 13.4 12.2 13.4H6.19995C5.70289 13.4 5.29995 12.9971 5.29995 12.5C5.29995 12.0029 5.70289 11.6 6.19995 11.6H12.2C12.697 11.6 13.1 12.0029 13.1 12.5ZM14.2 8.4C14.697 8.4 15.1 7.99706 15.1 7.5C15.1 7.00294 14.697 6.6 14.2 6.6H6.19995C5.7029 6.6 5.29995 7.00294 5.29995 7.5C5.29995 7.99706 5.7029 8.4 6.19995 8.4H14.2Z" fill="#525252"/>
        </symbol>
        <symbol id="buy-icon" viewBox="0 0 20 20">
            <path fill-rule="evenodd" clip-rule="evenodd" d="M10 20C15.5228 20 20 15.5228 20 10C20 4.47715 15.5228 0 10 0C4.47715 0 0 4.47715 0 10C0 15.5228 4.47715 20 10 20ZM10.9 6C10.9 5.50294 10.4971 5.1 10 5.1C9.5029 5.1 9.1 5.50294 9.1 6V9.1H6C5.50294 9.1 5.1 9.5029 5.1 10C5.1 10.4971 5.50294 10.9 6 10.9H9.1V14C9.1 14.4971 9.5029 14.9 10 14.9C10.4971 14.9 10.9 14.4971 10.9 14V10.9H14C14.4971 10.9 14.9 10.4971 14.9 10C14.9 9.5029 14.4971 9.1 14 9.1H10.9V6Z" fill="#525252"/>
        </symbol>
        <symbol id="sbp-icon" viewBox="0 0 24 24">
            <path d="M3 5.78809L5.68615 10.5486V13.4516L3 18.2121V5.78809Z" fill="#5B57A2"/>
            <path d="M13.3291 8.8148L15.8491 7.2876H20.9999L13.3291 11.938V8.8148Z" fill="#D90751"/>
            <path d="M13.3151 5.76048L13.3289 12.0619L10.6289 10.4246V1L13.3151 5.76048Z" fill="#ED6F26"/>
            <path d="M20.9997 7.28768H15.8489L13.3151 5.76047L10.6289 1L20.9997 7.28768Z" fill="#ED6F26"/>
            <path d="M13.3289 18.2394V15.1713L10.6289 13.5615V22.9999L13.3289 18.2394Z" fill="#63B22F"/>
            <path d="M15.8354 16.7262L5.68615 10.5486L3 5.78809L21 16.7124L15.8354 16.7262Z" fill="#1487C9"/>
            <path d="M10.6289 23.0001L13.3289 18.2396L15.8351 16.7262L20.9997 16.7124L10.6289 23.0001Z" fill="#017F36"/>
            <path d="M3 18.212L10.6569 13.5616L8.08154 12.0068L5.68615 13.4515L3 18.212Z" fill="#984995"/>
        </symbol>
        <symbol id="qr-icon" viewBox="0 0 20 20">
            <path d="M0.799805 4.7998V3.7998C0.799805 2.14295 2.14295 0.799805 3.7998 0.799805H4.7998M0.799805 14.7998V15.7998C0.799805 17.4567 2.14295 18.7998 3.7998 18.7998H4.7998M18.7998 4.7998V3.7998C18.7998 2.14295 17.4567 0.799805 15.7998 0.799805H14.7998M18.7998 14.7998V15.7998C18.7998 17.4567 17.4567 18.7998 15.7998 18.7998H14.7998M4.17175 11.2998H7.17175C7.724 11.2998 8.1717 11.7475 8.1717 12.2998V15.2998M13.4295 4.2998C14.5341 4.2998 15.4295 5.19523 15.4295 6.2998C15.4295 7.4044 14.5341 8.2998 13.4295 8.2998C12.3249 8.2998 11.4295 7.4044 11.4295 6.2998C11.4295 5.19523 12.3249 4.2998 13.4295 4.2998ZM13.4295 11.2998C14.5341 11.2998 15.4295 12.1952 15.4295 13.2998C15.4295 14.4044 14.5341 15.2998 13.4295 15.2998C12.3249 15.2998 11.4295 14.4044 11.4295 13.2998C11.4295 12.1952 12.3249 11.2998 13.4295 11.2998ZM6.17175 4.2998C7.27632 4.2998 8.1717 5.19523 8.1717 6.2998C8.1717 7.4044 7.27632 8.2998 6.17175 8.2998C5.06718 8.2998 4.17175 7.4044 4.17175 6.2998C4.17175 5.19523 5.06718 4.2998 6.17175 4.2998Z" stroke="#222222" stroke-width="1.6" stroke-linecap="round" stroke-linejoin="round"/>
        </symbol>
        <symbol id="add-icon" viewBox="0 0 18 18">
            <path d="M10 1C10 0.44772 9.5523 0 9 0C8.4477 0 8 0.44772 8 1V8H1C0.44772 8 0 8.4477 0 9C0 9.5523 0.44772 10 1 10H8V17C8 17.5523 8.4477 18 9 18C9.5523 18 10 17.5523 10 17V10H17C17.5523 10 18 9.5523 18 9C18 8.4477 17.5523 8 17 8H10V1Z" fill="#A7A7A7"/>
        </symbol>
        <symbol id="remove-icon" viewBox="0 0 18 2">
            <path d="M8 0C9 1.50004 9.5523 1.00004 9 1.00004C8.4477 1.00004 10 0.00021024 10 0.00021024L8 0L1 0.00021024C0.44772 0.00021024 0 0.447909 0 1.00021C0 1.55251 0.44772 2.00021 1 2.00021H8L10 2.00004C10 2.00004 8.4477 2.00004 9 2.00004C9.5523 2.00004 8 2.00021 8 2.00021L10 2.00004L17 2.00021C17.5523 2.00021 18 1.55251 18 1.00021C18 0.447909 17.5523 0.00021024 17 0.00021024H10L8 0Z" fill="#A7A7A7"/>
        </symbol>
    </defs>
</svg>